<svg width="1600" height="900" viewBox="0 0 1600 900" xmlns="http://www.w3.org/2000/svg">
  <defs>
    <linearGradient id="bg" x1="0" y1="0" x2="0" y2="1">
      <stop offset="0%" stop-color="#f5efe0"/>
      <stop offset="100%" stop-color="#ddd3bc"/>
    </linearGradient>

    <filter id="shadow" x="-20%" y="-20%" width="140%" height="140%">
      <feDropShadow dx="0" dy="8" stdDeviation="12" flood-opacity="0.18"/>
    </filter>
  </defs>

  <rect width="1600" height="900" fill="url(#bg)"/>

  <g opacity="0.06">
    <circle cx="250" cy="760" r="160" fill="#1f3556"/>
    <circle cx="1350" cy="180" r="120" fill="#1f3556"/>
  </g>

  <g transform="translate(790 430) scale(1.08)" filter="url(#shadow)">
    <ellipse cx="0" cy="320" rx="230" ry="28" fill="#000" opacity="0.12"/>

    <circle cx="0" cy="-250" r="58" fill="#1f3556"/>

    <path d="M-75 -180
             C-105 -60,-95 30,-45 120
             L55 120
             C105 20,110 -70,70 -180
             Z"
          fill="#1f3556"/>

    <path d="M55 -135
             C130 -175,220 -205,305 -205
             L315 -175
             C220 -165,140 -125,70 -90
             Z"
          fill="#1f3556"/>

    <path d="M-75 -120
             C-170 -20,-210 80,-220 180
             L-180 180
             C-170 70,-125 -15,-40 -95
             Z"
          fill="#1f3556"/>

    <circle cx="340" cy="-210" r="18" fill="#b66a3c"/>

    <path d="M-25 120
             C-70 200,-85 270,-75 350
             L-25 350
             C-25 260,-5 200,25 120
             Z"
          fill="#1f3556"/>

    <path d="M40 120
             C95 200,120 270,125 360
             L175 360
             C165 255,130 185,70 120
             Z"
          fill="#1f3556"/>
  </g>

  <text x="80" y="120"
        font-family="Georgia"
        font-size="70"
        letter-spacing="5"
        fill="#1f3556"
        opacity="0.12">
    PITCHING ANALYZER
  </text>
</svg>