<svg width="1600" height="900" viewBox="0 0 1600 900" xmlns="http://www.w3.org/2000/svg">
  <defs>
    <linearGradient id="bg" x1="0" y1="0" x2="0" y2="1">
      <stop offset="0%" stop-color="#f7f1e1"/>
      <stop offset="100%" stop-color="#e5dcc5"/>
    </linearGradient>

    <filter id="shadow" x="-20%" y="-20%" width="140%" height="140%">
      <feDropShadow dx="0" dy="8" stdDeviation="12" flood-opacity="0.18"/>
    </filter>
  </defs>

  <rect width="1600" height="900" fill="url(#bg)"/>

  <g opacity="0.06">
    <circle cx="200" cy="160" r="120" fill="#1b2a41"/>
    <circle cx="1380" cy="760" r="170" fill="#1b2a41"/>
  </g>

  <g transform="translate(820 470) scale(1.1)" filter="url(#shadow)">
    <ellipse cx="0" cy="270" rx="230" ry="30" fill="#000" opacity="0.12"/>

    <circle cx="-10" cy="-250" r="58" fill="#16263d"/>

    <path d="M-85 -180
             C-120 -80,-105 20,-70 90
             L40 90
             C85 10,95 -80,65 -180
             Z"
          fill="#16263d"/>

    <path d="M65 -150
             C160 -110,245 -45,315 20
             L295 45
             C225 -5,145 -50,45 -95
             Z"
          fill="#16263d"/>

    <rect x="260" y="-120" width="250" height="18" rx="9"
          transform="rotate(36 260 -120)"
          fill="#7a5a34"/>

    <path d="M-55 85
             C-80 160,-95 230,-75 310
             L-30 310
             C-40 230,-20 160,5 95
             Z"
          fill="#16263d"/>

    <path d="M20 85
             C70 170,90 250,75 330
             L120 330
             C135 240,110 160,55 85
             Z"
          fill="#16263d"/>
  </g>

  <text x="80" y="120"
        font-family="Georgia"
        font-size="70"
        letter-spacing="5"
        fill="#16263d"
        opacity="0.12">
    LINEUP ANALYZER
  </text>
</svg>